<?xml version="1.0" encoding="utf-8"?>
<!-- Generator: Adobe Illustrator 26.1.0, SVG Export Plug-In . SVG Version: 6.00 Build 0)  -->
<svg version="1.1" id="Слой_1" xmlns="http://www.w3.org/2000/svg" xmlns:xlink="http://www.w3.org/1999/xlink" x="0px" y="0px"
	 viewBox="0 0 1333.3 248.7" style="enable-background:new 0 0 1333.3 248.7;" xml:space="preserve">
<style type="text/css">
	.st0{fill-rule:evenodd;clip-rule:evenodd;fill:var(--color-logo, #FFFFFF);}
	.st1{fill:var(--color-logo, #FFFFFF);}
</style>
<path id="_35" class="st0" d="M1187.5,3.7h-110.1l-6.1,34.1h59.2L1087.6,72l4.8,21.4h20.5c12.4,0,18.7,4.4,18.7,13.2
	c0.2,5.4-2.1,10.5-6.1,14c-4.6,3.7-10.5,5.6-16.4,5.3c-4.8,0.3-9.5-1.3-13.1-4.4c-3.1-2.9-4.9-7-5.1-11.3h-41.2
	c-1.4,16.2,3.5,28.8,14.5,37.7c11,8.9,25.5,13.3,43.6,13.3c17,0.5,33.6-5.4,46.4-16.6c12-10.2,18.9-25.2,18.7-41
	c0-19-10.2-31.4-30.5-37.3l40.7-37.3L1187.5,3.7z M1319.1,39l6.2-35.3h-105.2l-15.5,87.4h50.5c5.1-0.3,10.1,1,14.3,3.9
	c3.3,2.5,5.2,6.5,5,10.7c0.2,5.7-2.4,11.2-6.8,14.8c-4.7,3.9-10.7,5.9-16.8,5.7c-11.4,0-17.5-5.1-18.2-15.3h-41.9
	c-1.9,13.7,3.3,27.4,13.8,36.4c10.5,9.2,24.8,13.9,42.7,13.9c20.5,0,37-5.7,49.6-17.1c12.6-11.4,19.5-27.8,18.9-44.8
	c0.5-11.3-4.2-22.3-12.6-29.8c-8.4-7.4-20.4-11.1-36.1-11.1h-19.3L1251,39L1319.1,39L1319.1,39z"/>
<g>
	<polygon class="st1" points="394,199.1 394,83.3 348.5,83.3 325.9,124.2 348.5,124.2 348.5,199.1 325.9,199.1 325.9,239.9 
		416.2,239.9 416.2,199.1 394,199.1 	"/>
	<polygon class="st1" points="544.7,113.4 530.9,132.3 517.5,114 517.5,83.3 437.7,83.3 437.7,124.2 472.4,124.2 502.2,161.8 
		472.7,199.1 437.7,199.1 437.7,239.9 517.5,239.9 517.5,210.2 531.2,192.2 544.6,209.5 544.6,239.9 624.8,239.9 624.8,199.1 
		589.1,199.1 560,161.8 589.8,124.2 624.8,124.2 624.8,83.3 544.7,83.3 	"/>
	<path class="st1" d="M281.9,153.9c0-22.5-6.5-40.7-19.6-54.6C249.8,85.6,232,78,213.5,78.4c-10.6-0.3-21.2,1.5-31.2,5.2
		c-9.5,4.1-18.2,9.8-25.7,17c-12.5-14.6-30.9-22.7-50-22.2C92.4,77.9,78.5,83.1,68,92.8v-9.5H0v40.9h22.6V199H0v40.9h90.3v-40.9H68
		v-62.5c8.7-11.3,18-17,27.8-17c9.3-0.6,18.4,3,24.8,9.8c5.9,6.5,8.8,16,8.8,28.4V199h-19.6v40.9h87.3v-40.9h-22.2v-45.1
		c0-5.8-0.6-11.6-1.6-17.3c8.5-11.3,18.3-17,29.4-17c9.3-0.5,18.4,3,24.9,9.8c5.9,6.5,8.8,16,8.8,28.4V199h-19.6v40.9h87.6v-40.9
		h-22.5V153.9z"/>
	<path class="st1" d="M349.6,53.7c11.9,11.1,30.3,11.1,42.2,0c5.7-5.3,8.8-12.7,8.7-20.4c0.2-7.8-3-15.4-8.7-20.8
		c-11.9-11.1-30.3-11.1-42.2,0c-5.7,5.4-8.9,12.9-8.7,20.8C340.8,41,344,48.4,349.6,53.7z"/>
	<path class="st1" d="M1007.4,103.4c-16.3-15.5-38.2-23.9-60.7-23.2c-24.4,0-44.7,7.7-61,23.2l0,0c-16.1,15.1-25,36.4-24.4,58.5
		c-0.6,22.4,8.3,43.9,24.5,59.4c34.3,31.6,87.2,31.6,121.5,0c16.1-15.5,24.9-37,24.4-59.4C1032.4,139.9,1023.5,118.6,1007.4,103.4z
		 M975.1,191.3c-7.3,7.8-17.6,12-28.2,11.8c-10.8,0.3-21.2-4-28.6-11.8c-15.3-16.6-15.3-42,0-58.6c7.4-7.8,17.8-12.1,28.6-11.8
		c10.7-0.3,20.9,4,28.2,11.8v0c7.5,7.8,11.2,17.6,11.2,29.4C986.7,172.9,982.6,183.4,975.1,191.3z"/>
	<path class="st1" d="M827.5,199.1v-45.1c0-22.9-6.3-41.2-18.8-54.9c-12.5-13.7-29.2-20.6-49.9-20.6c-16.3,0-32.1,5.8-44.5,16.3
		V83.3h-68v40.9h22.6v74.9h-22.6v40.9h90.3v-40.9h-22.2v-60.5c10.7-12.6,22-19,34-19c9.3-0.5,18.4,3,24.8,9.8
		c5.9,6.5,8.8,16,8.8,28.4V199h-19.3v40.9H850v-40.9H827.5L827.5,199.1z"/>
</g>
</svg>
